<?xml version="1.0" encoding="UTF-8" standalone="no"?>
<!-- Created with Inkscape (http://www.inkscape.org/) -->

<svg
   xmlns:dc="http://purl.org/dc/elements/1.1/"
   xmlns:cc="http://creativecommons.org/ns#"
   xmlns:rdf="http://www.w3.org/1999/02/22-rdf-syntax-ns#"
   xmlns:svg="http://www.w3.org/2000/svg"
   xmlns="http://www.w3.org/2000/svg"
   xmlns:sodipodi="http://sodipodi.sourceforge.net/DTD/sodipodi-0.dtd"
   xmlns:inkscape="http://www.inkscape.org/namespaces/inkscape"
   width="64"
   height="64"
   id="svg2"
   version="1.1"
   inkscape:version="0.48.2 r9819"
   sodipodi:docname="Neues Dokument 1">
  <defs
     id="defs4" />
  <sodipodi:namedview
     id="base"
     pagecolor="#ffffff"
     bordercolor="#666666"
     borderopacity="1.0"
     inkscape:pageopacity="0.0"
     inkscape:pageshadow="2"
     inkscape:zoom="5.6321244"
     inkscape:cx="33.5"
     inkscape:cy="28"
     inkscape:document-units="px"
     inkscape:current-layer="layer1"
     showgrid="false"
     inkscape:window-width="1600"
     inkscape:window-height="1148"
     inkscape:window-x="-8"
     inkscape:window-y="-8"
     inkscape:window-maximized="1" />
  <metadata
     id="metadata7">
    <rdf:RDF>
      <cc:Work
         rdf:about="">
        <dc:format>image/svg+xml</dc:format>
        <dc:type
           rdf:resource="http://purl.org/dc/dcmitype/StillImage" />
        <dc:title></dc:title>
      </cc:Work>
    </rdf:RDF>
  </metadata>
  <g
     inkscape:label="Ebene 1"
     inkscape:groupmode="layer"
     id="layer1"
     transform="translate(0,-988.36218)">
    <path
       style="fill:black;fill-opacity:1;fill-rule:evenodd;stroke:none"
       d="m 32.387808,1021.8122 c -3.003658,0.015 -8.14208,-3.8931 -10.390641,-4.1438 -13.9963941,-1.5617 -11.896804,10.8617 -12.2469817,21.8327 0,9.3281 10.2986987,12.2674 22.9858927,12.2674 12.687193,0 22.947197,-2.9393 22.947197,-12.2674 -1.509382,-12.5549 -2.935521,-25.1354 -13.401974,-21.7157 -2.200316,0.719 -7.028579,4.0122 -9.893493,4.0268 z"
       id="path2991"
       inkscape:connector-curvature="0"
       sodipodi:nodetypes="sscscss" />
    <path
       sodipodi:type="arc"
       style="fill:none;stroke:white;stroke-width:1.00014782;stroke-miterlimit:4;stroke-opacity:1;stroke-dasharray:none;marker-mid:none"
       id="path2999"
       sodipodi:cx="33.91048"
       sodipodi:cy="31.534985"
       sodipodi:rx="11.256321"
       sodipodi:ry="6.956789"
       d="m 45.166801,31.534985 a 11.256321,6.956789 0 1 1 -22.512641,0 11.256321,6.956789 0 1 1 22.512641,0 z"
       transform="matrix(0.67399942,0,0,1.2654161,9.0838119,979.55178)" />
    <path
       style="fill:black;fill-opacity:1;fill-rule:evenodd;stroke:white;stroke-width:1.06904721;stroke-opacity:1"
       d="m 46.382412,1004.9006 c 0,8.6954 -9.360688,15.7445 -14.043984,15.7445 -4.181431,0 -14.043986,-7.0491 -14.043986,-15.7445 0,-8.69542 5.044632,-15.74439 14.043986,-15.74439 8.999353,0 14.043984,7.04897 14.043984,15.74439"
       id="path2985"
       inkscape:connector-curvature="0"
       sodipodi:nodetypes="csssc" />
  </g>
</svg>
