<?xml version="1.0" encoding="UTF-8" standalone="no"?>
<!-- Created with Inkscape (http://www.inkscape.org/) -->

<svg
   xmlns:dc="http://purl.org/dc/elements/1.1/"
   xmlns:cc="http://creativecommons.org/ns#"
   xmlns:rdf="http://www.w3.org/1999/02/22-rdf-syntax-ns#"
   xmlns:svg="http://www.w3.org/2000/svg"
   xmlns="http://www.w3.org/2000/svg"
   xmlns:sodipodi="http://sodipodi.sourceforge.net/DTD/sodipodi-0.dtd"
   xmlns:inkscape="http://www.inkscape.org/namespaces/inkscape"
   version="1.0"
   width="64"
   height="64"
   id="svg4729"
   inkscape:version="0.48.4 r9939"
   sodipodi:docname="logo.svg"
   inkscape:export-filename="D:\DEVEL\Schatzsuche\git\260813\main\de.saxsys.treasurehunting\modules\de.saxsys.treasurehunting.common\public\images\logo\logo16.png"
   inkscape:export-xdpi="22.5"
   inkscape:export-ydpi="22.5">
  <metadata
     id="metadata11">
    <rdf:RDF>
      <cc:Work
         rdf:about="">
        <dc:format>image/svg+xml</dc:format>
        <dc:type
           rdf:resource="http://purl.org/dc/dcmitype/StillImage" />
        <dc:title></dc:title>
      </cc:Work>
    </rdf:RDF>
  </metadata>
  <sodipodi:namedview
     pagecolor="#ffffff"
     bordercolor="#666666"
     borderopacity="1"
     objecttolerance="10"
     gridtolerance="10"
     guidetolerance="10"
     inkscape:pageopacity="0"
     inkscape:pageshadow="2"
     inkscape:window-width="1600"
     inkscape:window-height="1116"
     id="namedview9"
     showgrid="true"
     inkscape:zoom="3.6875"
     inkscape:cx="-19.932203"
     inkscape:cy="32"
     inkscape:window-x="1592"
     inkscape:window-y="-8"
     inkscape:window-maximized="1"
     inkscape:current-layer="svg4729">
    <inkscape:grid
       type="xygrid"
       id="grid2988"
       empspacing="5"
       visible="true"
       enabled="true"
       snapvisiblegridlinesonly="true" />
  </sodipodi:namedview>
  <defs
     id="defs4731" />
  <g
     id="icon"
     transform="translate(-2.2711864,4)">
    <path
       d="m 56,10.3 c 0,3.31 -9.85,6 -22,6 -12.15,0 -22,-2.69 -22,-6 0,-3.307 9.85,-5.997 22,-5.997 12.15,0 22,2.69 22,5.997 z"
       id="path3211"
       style="fill:#000000;fill-opacity:1;stroke:#000000;stroke-width:4;stroke-linecap:round;stroke-linejoin:round;stroke-miterlimit:4;stroke-opacity:1"
       inkscape:connector-curvature="0" />
    <path
       d="m 13.28,20.31 c -0.81,0.63 -1.28,1.3 -1.28,2 0,3.32 9.85,6 22,6 12.15,0 22,-2.68 22,-6 0,-0.7 -0.47,-1.37 -1.28,-2 -3.03,2.33 -11.15,4 -20.72,4 -9.57,0 -17.69,-1.67 -20.72,-4 z"
       id="path3589"
       style="fill:#000000;fill-opacity:1;stroke:#000000;stroke-width:4;stroke-linecap:round;stroke-linejoin:round;stroke-miterlimit:4;stroke-opacity:1;stroke-dasharray:none"
       inkscape:connector-curvature="0" />
    <path
       d="m 13.28,32.31 c -0.81,0.63 -1.28,1.3 -1.28,2 0,3.32 9.85,6 22,6 12.15,0 22,-2.68 22,-6 0,-0.7 -0.47,-1.37 -1.28,-2 -3.03,2.33 -11.15,4 -20.72,4 -9.57,0 -17.69,-1.67 -20.72,-4 z"
       id="path3594"
       style="fill:#000000;fill-opacity:1;stroke:#000000;stroke-width:4;stroke-linecap:round;stroke-linejoin:round;stroke-miterlimit:4;stroke-opacity:1;stroke-dasharray:none"
       inkscape:connector-curvature="0" />
    <path
       d="m 13.28,44.31 c -0.81,0.63 -1.28,1.3 -1.28,2 0,3.32 9.85,6 22,6 12.15,0 22,-2.68 22,-6 0,-0.7 -0.47,-1.37 -1.28,-2 -3.03,2.33 -11.15,4 -20.72,4 -9.57,0 -17.69,-1.67 -20.72,-4 z"
       id="path3596"
       style="fill:#000000;fill-opacity:1;stroke:#000000;stroke-width:4;stroke-linecap:round;stroke-linejoin:round;stroke-miterlimit:4;stroke-opacity:1;stroke-dasharray:none"
       inkscape:connector-curvature="0" />
  </g>
</svg>
